<svg xmlns="http://www.w3.org/2000/svg" width="32" height="32" viewBox="0 0 16 16">
  <path fill="#1E3A8A" fill-rule="evenodd" d="M0 0h16v16H0V0Zm14.817 3.577a.5.5 0 0 0-.07-.706l-2.5-2a.5.5 0 0 0-.576.038l-2.5 2a.5.5 0 0 0-.096.812l-2.5 1.5a.5.5 0 0 0-.158.094l-2 2.5a.5.5 0 0 0 .832.624l1.792-2.239 2.586-1.55L13.907 8 14.5 7.5l.817-3.923ZM2.5 3a.5.5 0 1 0 0-1 .5.5 0 0 0 0 1Zm2 4a.5.5 0 1 0 0-1 .5.5 0 0 0 0 1Zm3 4a.5.5 0 1 0 0-1 .5.5 0 0 0 0 1Zm3-4a.5.5 0 1 0 0-1 .5.5 0 0 0 0 1Zm3 2a.5.5 0 1 0 0-1 .5.5 0 0 0 0 1Z"/>
</svg>
